<svg width="662" height="113" viewBox="0 0 662 113" fill="none" xmlns="http://www.w3.org/2000/svg">
<path d="M44.9399 7.96997C44.9399 9.23997 45.24 10.45 45.77 11.52C46.0967 12.1734 46.5033 12.7699 46.99 13.3099L47.0898 13.42C47.2298 13.5734 47.3767 13.7166 47.53 13.85L47.6499 13.96C47.8032 14.0933 47.9632 14.2233 48.1299 14.35L48.25 14.4399C48.3233 14.4866 48.3966 14.5366 48.47 14.59L48.6399 14.7C48.7066 14.74 48.7765 14.7833 48.8499 14.83L48.96 14.89C49.1666 15.01 49.3765 15.12 49.5898 15.22L49.74 15.28L49.8201 15.3199C49.9534 15.3733 50.0866 15.4233 50.22 15.47C50.2866 15.4966 50.3533 15.52 50.4199 15.54L50.47 15.5599V22.8199C49.9366 22.9866 49.4166 23.21 48.9099 23.49L16.8298 42.01C14.3598 43.44 12.8398 46.0699 12.8398 48.9299V60.51C12.8398 63.14 14.9799 65.28 17.6199 65.28C20.2599 65.28 22.3999 63.14 22.3999 60.51C22.3932 60.5033 22.3899 60.5 22.3899 60.5V53.84C22.3899 51.36 23.7199 49.07 25.8599 47.83L49.4399 34.22C51.5899 32.98 54.2299 32.98 56.3699 34.22L79.95 47.83C82.1 49.07 83.4199 51.36 83.4199 53.84V60.5C83.4199 60.5 83.4199 60.5033 83.4199 60.51C83.4199 63.14 85.5599 65.28 88.1899 65.28C90.8299 65.28 92.97 63.14 92.97 60.51V48.9299C92.97 46.0699 91.45 43.44 88.98 42.01L56.8999 23.49C56.3999 23.21 55.8798 22.9866 55.3398 22.8199V15.5599L55.49 15.51L55.5898 15.47C55.7232 15.4233 55.8567 15.3733 55.99 15.3199L56.0798 15.28L56.22 15.22C56.4333 15.12 56.6432 15.01 56.8499 14.89C56.8899 14.87 56.9266 14.85 56.96 14.83L57.0701 14.76L57.1799 14.7L57.3101 14.61L57.45 14.51L57.5601 14.4399L57.6799 14.35C57.8466 14.2233 58.0066 14.0933 58.1599 13.96L58.28 13.85C58.4334 13.7166 58.58 13.5734 58.72 13.42L58.8201 13.3099C59.3067 12.7699 59.7134 12.1734 60.04 11.52C60.57 10.45 60.8699 9.23997 60.8699 7.96997C60.8699 3.61997 57.38 0.08 53.05 0H52.9099C48.4999 0 44.9399 3.56997 44.9399 7.96997ZM60.6499 64.74C60.6499 68.53 63.73 71.6 67.52 71.6C71.31 71.6 74.3799 68.53 74.3799 64.74C74.3799 60.95 71.31 57.87 67.52 57.87C63.73 57.87 60.6499 60.95 60.6499 64.74ZM31.8799 64.74C31.8799 68.53 34.95 71.6 38.74 71.6C42.53 71.6 45.5999 68.53 45.5999 64.74C45.5999 60.95 42.53 57.87 38.74 57.87C34.95 57.87 31.8799 60.95 31.8799 64.74ZM95.6299 64.04V68.91C95.6299 71.72 97.91 74 100.72 74H100.85C103.6 73.93 105.81 71.68 105.81 68.91V64.04V63.91C105.74 61.2 103.56 59.01 100.85 58.95H100.72C97.91 58.95 95.6299 61.23 95.6299 64.04ZM0 64.04V68.91C0 71.72 2.27984 74 5.08984 74H5.21997C7.96997 73.93 10.1799 71.68 10.1799 68.91V64.04V63.91C10.1099 61.2 7.92997 59.01 5.21997 58.95H5.08984C2.27984 58.95 0 61.23 0 64.04ZM83.4199 74.4V81.0699C83.4199 83.5399 82.1 85.8299 79.95 87.0699L56.3699 100.68C54.2299 101.92 51.5899 101.92 49.4399 100.68L25.8599 87.0699C23.7199 85.8299 22.3899 83.5399 22.3899 81.0699V74.4C22.3899 74.4 22.3932 74.4 22.3999 74.4C22.3999 71.76 20.2599 69.62 17.6199 69.62C14.9799 69.62 12.8398 71.76 12.8398 74.4V85.98C12.8398 88.83 14.3598 91.46 16.8298 92.89L48.9099 111.41C51.3799 112.84 54.4299 112.84 56.8999 111.41L88.98 92.89C91.45 91.46 92.97 88.83 92.97 85.98V74.4C92.97 71.76 90.8299 69.62 88.1899 69.62C85.5599 69.62 83.4199 71.76 83.4199 74.4ZM61.1499 78.24H61.1299H44.6799H44.6599C44.6399 78.24 44.6165 78.24 44.5898 78.24H44.53C43.53 78.27 42.72 79.1 42.72 80.11C42.72 80.3367 42.7598 80.55 42.8398 80.75C43.9498 85.16 47.9399 88.42 52.6799 88.42H52.8999H53.1299C57.8699 88.42 61.86 85.16 62.98 80.75C63.0533 80.55 63.0898 80.3367 63.0898 80.11C63.0898 79.1 62.28 78.27 61.28 78.24H61.22H61.1499Z" fill="url(#paint0_linear_2001_4087)"/>
<path d="M137.6 45.9202C136.387 45.9202 135.78 46.5268 135.78 47.7401V86.5201C135.78 87.7335 136.387 88.3401 137.6 88.3401H165.9C179.05 88.3401 184.44 83.0701 184.44 71.2501V63.0101C184.44 51.1901 179.05 45.9202 165.9 45.9202H137.6ZM144.99 55.2501C144.99 54.7101 145.23 54.4601 145.78 54.4601H165.66C172.81 54.4601 175.23 56.6502 175.23 63.8002V70.4601C175.23 77.6101 172.81 79.7902 165.66 79.7902H145.78C145.23 79.7902 144.99 79.5501 144.99 79.0101V55.2501ZM208.5 45.9102C196.2 45.9102 191.53 50.3402 191.53 61.9102V72.3301C191.53 83.9101 196.2 88.3301 208.5 88.3301H235.16C236.01 88.3301 236.49 87.9101 236.49 87.0001V81.1201C236.49 80.2701 236.01 79.7902 235.16 79.7902H208.56C202.32 79.7902 200.68 78.0302 200.68 71.6702V70.9401H234.8C235.65 70.9401 236.13 70.5201 236.13 69.6101V64.2101C236.13 63.3101 235.65 62.8801 234.8 62.8801H200.68V62.5801C200.68 56.2201 202.32 54.4601 208.56 54.4601H235.16C236.01 54.4601 236.49 53.9701 236.49 53.1301V47.2501C236.49 46.3401 236.01 45.9102 235.16 45.9102H208.5ZM253.46 45.9102C246.49 45.9102 242.8 49.5502 242.8 55.7902V60.2802C242.8 67.0602 246.55 70.9401 253.34 70.9401H276.07C278.31 70.9401 279.22 71.8502 279.22 74.0302V76.5201C279.22 78.7601 278.13 79.7902 276.01 79.7902H244.19C243.28 79.7902 242.86 80.2701 242.86 81.1201V87.0001C242.86 87.9101 243.28 88.3301 244.19 88.3301H277.76C284.73 88.3301 288.49 84.7001 288.49 78.4601V73.5502C288.49 66.7602 284.67 62.8801 277.88 62.8801H255.22C252.98 62.8801 252.01 61.9702 252.01 59.7902V57.7301C252.01 55.4901 253.04 54.4601 255.22 54.4601H285.58C286.43 54.4601 286.91 53.9701 286.91 53.1301V47.2501C286.91 46.3401 286.43 45.9102 285.58 45.9102H253.46ZM311.93 45.9102C299.63 45.9102 294.97 50.3402 294.97 61.9102V72.3301C294.97 83.9101 299.63 88.3301 311.93 88.3301H338.6C339.45 88.3301 339.93 87.9101 339.93 87.0001V81.1201C339.93 80.2701 339.45 79.7902 338.6 79.7902H312C305.75 79.7902 304.12 78.0302 304.12 71.6702V70.9401H338.23C339.08 70.9401 339.57 70.5201 339.57 69.6101V64.2101C339.57 63.3101 339.08 62.8801 338.23 62.8801H304.12V62.5801C304.12 56.2201 305.75 54.4601 312 54.4601H338.6C339.45 54.4601 339.93 53.9701 339.93 53.1301V47.2501C339.93 46.3401 339.45 45.9102 338.6 45.9102H311.93ZM352.35 45.9102C348.53 45.9102 346.95 47.4301 346.95 52.2201V87.0001C346.95 87.9101 347.38 88.3301 348.29 88.3301H354.77C355.62 88.3301 356.1 87.9101 356.1 87.0001V55.3701C356.1 54.9401 356.22 54.7601 356.59 54.7601H357.13C357.5 54.7601 357.68 54.8801 357.92 55.1901L380.28 84.7601C382.16 87.4201 382.89 88.3301 387.25 88.3301H392.64C396.46 88.3301 398.1 86.8202 398.1 82.0302V47.2501C398.1 46.3401 397.67 45.9102 396.76 45.9102H390.28C389.37 45.9102 388.95 46.3401 388.95 47.2501V78.8801C388.95 79.3001 388.76 79.4901 388.46 79.4901H387.92C387.55 79.4901 387.31 79.3601 387.13 79.0601L364.83 49.4901C362.89 46.8201 362.16 45.9102 357.8 45.9102H352.35ZM403.98 45.9102C403.01 45.9102 402.83 46.5201 403.25 47.3101L423.31 83.7301C425.25 87.4201 427.13 88.3301 430.28 88.3301H433.85C436.4 88.3301 438.28 87.4201 440.28 83.7301L460.09 47.3101C460.51 46.5201 460.33 45.9102 459.36 45.9102H451.55C450.76 45.9102 450.46 46.1001 450.15 46.7001L432.64 79.3002C432.46 79.5935 432.217 79.7368 431.91 79.7301H431.61C431.31 79.7368 431.067 79.5935 430.88 79.3002L413.25 46.7001C412.95 46.1001 412.64 45.9102 411.86 45.9102H403.98ZM479.36 45.9102C467.06 45.9102 462.39 50.3402 462.39 61.9102V72.3301C462.39 83.9101 467.06 88.3301 479.36 88.3301H498.02C510.32 88.3301 514.99 83.9701 514.99 72.3301V61.9102C514.99 50.2802 510.32 45.9102 498.02 45.9102H479.36ZM471.61 62.5801C471.61 56.2201 473.36 54.4601 479.67 54.4601H497.66C503.96 54.4601 505.72 56.2201 505.72 62.5801V71.6702C505.72 78.0302 503.96 79.7902 497.66 79.7902H479.67C473.36 79.7902 471.61 78.0302 471.61 71.6702V62.5801ZM523.84 45.9102C522.93 45.9102 522.51 46.3401 522.51 47.2501V72.3301C522.51 83.9701 527.17 88.3301 539.47 88.3301H564.32C565.17 88.3301 565.65 87.9101 565.65 87.0001V81.0601C565.65 80.1501 565.17 79.7301 564.32 79.7301H539.78C533.54 79.7301 531.72 77.8501 531.72 71.4301V47.2501C531.72 46.3401 531.29 45.9102 530.38 45.9102H523.84ZM558.02 45.9102C557.05 45.9102 556.87 46.5201 557.29 47.3101L577.35 83.7301C579.29 87.4201 581.17 88.3301 584.32 88.3301H587.9C590.44 88.3301 592.32 87.4201 594.32 83.7301L614.13 47.3101C614.56 46.5201 614.38 45.9102 613.41 45.9102H605.59C604.8 45.9102 604.5 46.1001 604.2 46.7001L586.68 79.3002C586.5 79.5935 586.26 79.7368 585.96 79.7301H585.65C585.35 79.7368 585.11 79.5935 584.93 79.3002L567.29 46.7001C566.99 46.1001 566.69 45.9102 565.9 45.9102H558.02ZM633.4 45.9102C621.1 45.9102 616.43 50.3402 616.43 61.9102V72.3301C616.43 83.9101 621.1 88.3301 633.4 88.3301H660.06C660.91 88.3301 661.4 87.9101 661.4 87.0001V81.1201C661.4 80.2701 660.91 79.7902 660.06 79.7902H633.46C627.22 79.7902 625.58 78.0302 625.58 71.6702V70.9401H659.7C660.55 70.9401 661.03 70.5201 661.03 69.6101V64.2101C661.03 63.3101 660.55 62.8801 659.7 62.8801H625.58V62.5801C625.58 56.2201 627.22 54.4601 633.46 54.4601H660.06C660.91 54.4601 661.4 53.9701 661.4 53.1301V47.2501C661.4 46.3401 660.91 45.9102 660.06 45.9102H633.4Z" fill="#666666"/>
<defs>
<linearGradient id="paint0_linear_2001_4087" x1="43.831" y1="-0.665" x2="43.831" y2="122.407" gradientUnits="userSpaceOnUse">
<stop stop-color="#FF0092"/>
<stop offset="0.269" stop-color="#FF8E00"/>
<stop offset="0.599" stop-color="#00A6FF"/>
<stop offset="1" stop-color="#FF00FF"/>
</linearGradient>
</defs>
</svg>
